<svg xmlns="http://www.w3.org/2000/svg" width="256" height="256" viewBox="0 0 174.554 174.554" fill="none" role="img" aria-label="Verificahub">
    <rect width="174.554" height="174.554" fill="#2A2418"></rect>
    <g transform="translate(-261.321,-110.382)">
        <g transform="matrix(1.24,0,0,1.24,-20.466947555541992,-5.9634552001953125)">
            <g transform="matrix(0.025267001241445545,0,0,-0.024505000561475757,248.90180969238284,204.36860656738284)"
                stroke="none">
                <path
                    d="M 3653.92 2624 L 1924.28 1827.06 L 981.851 2607.42 L 1924.28 1376.45 L 3235.51 1995.94 L 3653.92 2624 Z"
                    fill="#C7F04B"></path>
                <path
                    d="M 175.371 2621.26 C 1881.3 164.99 1920.1 120 1924.28 120 C 2989.83 1637.54 3042.96 1727.52 3042.96 1727.52 C 2601.07 1520.74 2162.31 1310.51 2162.31 1310.51 C 2162.31 1310.51 1927.41 966.01 1924.28 966.01 C 925.581 2393.57 761.425 2624.73 761.425 2624.73 C 282.971 2628.18 175.371 2621.26 175.371 2621.26 Z"
                    fill="#ECE7DB"></path>
            </g>
        </g>
    </g>
</svg>
